<?xml version="1.0" encoding="utf-8" ?><svg xmlns="http://www.w3.org/2000/svg" xmlns:xlink="http://www.w3.org/1999/xlink" width="1179" height="384" viewBox="0 0 1179 384"><path fill="#EF943A" d="M0 0L1179 0L1179 384L0 384L0 0Z"/><path fill="#FEFBF3" d="M148.04 75.7012C211.947 71.0932 267.502 119.137 272.163 183.043C276.825 246.949 228.83 302.547 164.931 307.263C100.956 311.984 45.2801 263.917 40.6129 199.935C35.9458 135.953 84.0572 80.3147 148.04 75.7012Z"/><path fill="#EF943A" d="M146.098 109.471L166.387 109.595L176.932 133.798L182.551 136.135C190.545 133.121 198.898 129.45 206.812 126.131C211.819 130.911 216.7 135.822 221.449 140.859C218.089 148.973 214.788 157.112 211.546 165.275L214.093 170.865C220.202 173.959 231.59 178.302 238.291 181.205L238.343 201.446C230.396 205.037 222.098 208.519 214.076 211.979C213.208 213.581 212.346 215.977 211.658 217.722L221.687 241.993C217.265 246.712 211.837 251.871 207.206 256.495C199.275 253.653 190.594 249.848 182.529 246.784C180.663 247.519 178.731 248.427 176.892 249.25C173.52 256.6 169.989 265.822 166.742 273.456L146.303 273.437C142.926 265.468 139.48 256.935 135.746 249.172C133.926 248.424 131.715 247.669 129.839 246.977C123.402 249.1 112.512 254.042 105.67 256.722L91.2963 242.252C94.6235 234.263 97.8458 226.057 101.092 218.021L98.5159 212.073C91.6201 208.755 81.6591 204.927 74.3834 201.914L74.3416 181.378C82.3305 178.027 90.5031 174.705 98.3338 171.027L101.072 165.019L90.9835 140.903C95.8807 136.132 100.75 131.331 105.591 126.503C113.217 129.216 122.282 133.111 129.911 136.171L135.712 133.663C139.237 126.967 142.779 116.833 146.098 109.471Z"/><path fill="#FEFBF3" d="M150.253 161.501C161.051 159.353 172.171 163.176 179.365 171.51C186.559 179.845 188.717 191.404 185.015 201.774C181.313 212.143 172.323 219.721 161.477 221.614C144.979 224.494 129.235 213.567 126.161 197.104C123.088 180.641 133.828 164.769 150.253 161.501Z"/><path fill="#FEFBF3" d="M1018.32 129.983L1050.05 129.945L1050.08 193.14C1050.09 245.95 1054.85 305.418 982.161 305.686C962.81 305.693 944.322 300.033 929.814 286.998C933.476 278.361 937.087 269.702 940.647 261.023C955.195 275.129 975.245 280.423 994.983 276.272C1022.14 270.56 1024.16 239.239 1025.35 216.833C1025.57 212.764 1026.55 205.772 1025.62 201.892C1025.05 201.804 1021.77 201.607 1021.59 202.096C1019.07 209.934 1017.88 217.294 1014.97 225.135C1005.41 250.939 969.63 258.025 950.3 238.856C933.111 221.809 934.782 190.81 934.77 168.278L934.688 130.023C945.163 129.835 956.024 129.979 966.528 129.984L966.487 162.481C966.477 178.333 964.043 205.264 976.109 217.558C979.573 221.087 984.159 222.948 989.092 222.965C995.243 222.987 1000.98 220.782 1005.33 216.41C1022.37 199.316 1018.38 152.336 1018.32 129.983Z"/><path fill="#FEFBF3" d="M396.393 126.891C431.994 124.703 455.222 138.027 456.308 176.086C457.118 204.473 455.915 232.496 459.57 260.812L431.333 260.905C430.581 256.563 428.538 231.397 427.677 229.833C422.78 229.383 419.496 240.282 415.643 245.271C412.347 249.527 408.388 253.225 403.919 256.224C385.34 268.609 357.085 267.511 344.008 247.523C338.687 238.982 337.7 223.616 341.022 214.182C349.045 191.921 378.433 188.359 398.905 184.843C412.383 182.529 432.254 182.309 423.161 161.323C417.564 148.406 395.926 149.51 385.524 155.108C376.58 159.923 373.415 166.197 370.49 175.624C361.051 172.755 351.63 169.828 342.228 166.842C351.577 139.341 368.774 129.171 396.393 126.891Z"/><path fill="#EF943A" d="M423.759 196.376C424.669 196.177 424.326 196.193 425.336 196.703C426.655 201.784 426.444 213.327 423.832 217.804C414.398 233.974 394.846 247.476 376.333 237.095C370.061 232.026 367.264 221.211 371.361 214.731C379.956 201.135 409.17 200.986 423.759 196.376Z"/><path fill="#FEFBF3" d="M623.945 129.96C634.53 129.909 645.115 129.923 655.699 130.001L655.7 177.855C655.67 191.162 655.401 201.495 657.071 215.192C659.683 236.615 682.137 245.72 697.498 230.493C713.103 215.023 711.89 186.52 711.884 165.655L711.783 129.976C722.267 129.915 732.752 129.921 743.236 129.993L743.218 197.757L743.246 260.809L717.34 260.925C717.312 255.873 718.523 220.964 716.862 219.495C716.073 219.512 713.814 219.271 713.541 220.119C711.006 229.058 708.815 236.035 704.588 244.306C691.281 270.343 648.565 270.845 633.593 246.114C622.046 227.04 623.925 202.436 623.929 180.524L623.945 129.96Z"/><path fill="#FEFBF3" d="M539.762 126.89C570.746 124.186 593.429 137.614 602.005 168.366C592.183 171.498 582.341 174.566 572.48 177.572C571.7 172.926 570.817 168.948 568.466 164.818C565.112 158.883 559.488 154.567 552.887 152.864C512.715 142.251 504.599 200.613 519.138 225.082C523.23 232.103 530.003 237.157 537.899 239.08C556.718 243.712 572.402 235.672 577.057 216.551L577.105 216.295C577.459 214.435 577.425 213.465 578.692 212.608C585.232 213.408 599.067 217.016 606 218.655C600.173 246.856 584.631 260.629 556.138 263.678C516.341 268.022 484.645 247.484 481.272 205.784C478.018 165.547 495.649 130.736 539.762 126.89Z"/><path fill="#FEFBF3" d="M858.456 100.848L876.795 100.846L876.788 129.88C888.156 130.094 899.941 129.959 911.342 129.979L911.362 156.06L876.813 156.067C876.828 168.57 875.071 217.878 878.769 226.114C880.331 229.592 883.049 232.369 886.65 233.71C894.739 236.722 904.914 233.391 912.355 229.966L912.372 258.063C912.379 259.236 912.501 258.768 911.677 259.869C895.903 264.898 870.579 267.029 857.901 254.281C844.379 240.685 846.475 216.255 846.475 198.313L846.456 155.084L827.254 155.181C827.267 146.927 827.576 138.398 827.768 130.126C857.284 130.245 854.369 129.815 858.456 100.848Z"/><path fill="#FEFBF3" d="M776.419 129.944L807.896 129.975C808.049 173.211 808.386 217.69 807.835 260.865L776.419 260.875L776.419 129.944Z"/><path fill="#FEFBF3" d="M1085.72 226.934C1103.19 225.449 1119.36 231.705 1111.25 254.577C1109.68 258.98 1103.85 261.807 1099.43 263.122C1093.94 264.229 1083.19 264.354 1078.8 260.919C1065.05 250.162 1068.84 231.064 1085.72 226.934Z"/><path fill="#FEFBF3" d="M790.092 77.3415C794.663 77.1145 803.467 77.7623 806.614 81.1746C818.907 94.5034 810.68 107.331 795.056 109.19C767.189 111.481 763.482 80.0197 790.092 77.3415Z"/><path fill="#FEFBF3" d="M598.527 297.667L611.967 297.667L611.967 304.38L601.207 304.38L601.043 304.721L609.998 321.073Q612.746 325.995 612.746 328.579Q612.746 334.225 609 336.864L594.152 336.864L594.152 330.37L605.746 330.37L605.91 330.028L595.834 311.94Q593.647 308.03 593.647 305.555Q593.647 299.731 598.527 297.667ZM616.386 308.249L622.375 308.249L623.222 310.259Q624.453 309.137 625.546 308.7Q626.64 308.249 628.814 308.249L633.859 308.249Q636.211 310.546 637.55 314.182Q638.904 317.819 638.904 322.194Q638.904 331.546 633.298 336.864L628.541 336.864Q625.574 336.864 623.837 335.292L623.837 345.259L616.386 345.259L616.386 308.249ZM623.837 330.985L629.211 330.985Q631.289 327.458 631.289 322.427Q631.289 317.382 629.156 314.128L623.837 314.128L623.837 330.985ZM656.424 323.93L650.436 323.93Q649.26 325.38 649.26 327.567Q649.26 329.755 650.491 330.985L656.424 330.985L656.424 323.93ZM644.393 308.249L658.27 308.249Q661.633 310.259 662.7 312.87Q663.766 315.468 663.766 319.952L663.766 328.346Q663.766 332.995 663.985 336.864L657.6 336.864L656.602 334.854Q654.415 336.864 650.436 336.864L646.909 336.864Q642.151 333.733 642.151 327.827Q642.151 321.907 647.018 318.503L652.282 318.503Q654.469 318.503 656.37 319.843L656.37 317.04Q656.37 314.852 654.469 314.128L644.393 314.128L644.393 308.249ZM668.633 336.864L668.633 308.249L673.951 308.249L675.359 311.27Q677.602 308.249 681.006 308.249L683.193 308.249L683.193 315.755L676.084 315.755L676.084 336.864L668.633 336.864ZM686.386 336.864L686.386 297.667L693.837 297.667L693.837 318.434L694.617 318.434L699.88 308.249L707.167 308.249L700.55 320.731L707.222 336.864L699.826 336.864L694.671 324.313L693.837 324.313L693.837 336.864L686.386 336.864ZM730.512 336.864L724.866 336.864L723.854 334.854Q722.623 335.962 721.53 336.413Q720.436 336.864 718.248 336.864L713.381 336.864Q710.92 334.512 709.485 330.712Q708.063 326.897 708.063 322.167Q708.063 317.436 709.485 314.128Q710.92 310.819 713.545 308.249L718.358 308.249Q721.338 308.249 723.075 309.821L723.075 297.667L730.512 297.667L730.512 336.864ZM723.075 314.128L717.688 314.128Q715.623 317.655 715.623 322.782Q715.623 327.909 717.633 330.985L723.075 330.985L723.075 314.128ZM748.264 314.128L744.067 314.128Q743.233 315.139 742.699 316.93Q742.166 318.721 742.166 320.403L750.178 320.403Q750.287 318.721 749.727 316.903Q749.166 315.085 748.264 314.128ZM755.879 330.985L755.879 336.864L741.66 336.864Q737.736 334.225 736.137 330.343Q734.551 326.446 734.551 322.468Q734.551 313.294 741.496 308.249L750.561 308.249Q754.32 310.997 755.66 314.073Q757 317.149 757 320.294Q757 323.424 756.494 325.667L742.563 325.667Q742.727 326.952 743.533 328.606Q744.354 330.26 745.297 330.985L755.879 330.985ZM773.182 308.249L779.129 308.249Q781.59 311.38 782.479 314.524Q783.381 317.655 783.381 322.358L783.381 336.864L775.93 336.864L775.93 321.798Q775.93 316.479 774.481 314.128L768.205 314.128L768.205 336.864L760.754 336.864L760.754 308.249L766.578 308.249L767.59 310.259Q768.821 309.137 769.914 308.7Q771.008 308.249 773.182 308.249Z"/><path fill="#FEFBF3" d="M559.046 293.863C560.341 293.911 561.24 294.412 562.065 295.398C563.305 296.879 564.261 298.689 565.248 300.348L567.67 304.381C567.992 304.915 568.694 306.159 569.094 306.552C569.5 306.641 570.343 306.306 570.779 306.197C573.488 305.523 576.18 304.778 578.886 304.091C580.54 303.671 582.449 303.072 584.117 302.83C585.131 302.734 586.123 302.753 587.02 303.249C588.69 304.172 588.633 306.268 587.731 307.732C586.837 309.185 585.461 310.625 584.314 311.961L579.294 317.822C578.789 318.404 577.29 320.055 576.94 320.659L576.927 320.682C577.372 321.732 578.121 323.06 578.671 324.107L581.411 329.34C582.543 331.483 584.294 334.018 582.993 336.448C582.116 338.085 580.114 339.102 578.298 338.807C576.41 338.501 574.245 337.772 572.399 337.175C570.278 336.488 567.577 335.851 565.616 334.821L565.162 335.368C564.319 336.388 563.348 337.3 562.456 338.275C560.14 340.809 557.852 343.348 555.254 345.602C554.076 346.624 551.735 348.525 550.142 348.388C549.746 348.354 549.443 348.155 549.192 347.854C547.019 345.255 547.942 332.985 548.279 329.462C547.675 329.051 547.09 328.565 546.432 328.25C543.802 326.985 541.065 325.911 538.448 324.622C536.903 323.829 535.233 322.248 535.015 320.444C534.522 316.357 539.973 315.343 542.91 314.424C544.953 313.766 547 313.119 549.051 312.483C549.83 312.24 551.386 311.799 552.056 311.481C552.285 310.896 552.553 309.174 552.681 308.458L553.75 302.485C554.315 299.252 554.905 294.299 559.046 293.863ZM543.571 319.866C545.865 320.692 548.313 321.745 550.59 322.63C551.462 322.968 555.06 324.387 555.593 324.791L554.271 334.949C554.058 336.61 553.825 339.023 553.515 340.607C556.75 337.04 560.212 333.335 563.361 329.726C563.646 329.419 564.207 328.784 564.505 328.536L571.901 330.627C573.194 330.991 574.841 331.417 576.101 331.855C574.907 329.755 573.736 327.335 572.595 325.186C572.239 324.516 570.31 320.967 570.233 320.508C570.424 319.958 571.637 318.652 572.07 318.147L576.823 312.607C577.431 311.903 579.001 310.176 579.432 309.442C578.426 309.863 575.562 310.528 574.391 310.837L568.956 312.265C568.701 312.332 566.147 313.058 566.026 312.945C565.134 312.107 559.889 302.434 559.435 302.254C559.162 303.292 558.928 304.799 558.73 305.887L557.613 312.071C557.427 313.109 557.263 314.155 557.047 315.186C556.969 315.559 556.623 315.698 556.289 315.819C555.284 316.181 554.25 316.484 553.229 316.801L547.04 318.724C546.019 319.045 544.542 319.48 543.571 319.866Z"/><path fill="#FEFBF3" d="M441.317 342.839Q440.983 343.066 440.39 343.354Q439.796 343.637 439.007 343.832Q438.219 344.026 437.282 344.017Q435.686 343.999 434.406 343.447Q433.13 342.895 432.23 341.939Q431.335 340.983 430.852 339.745Q430.375 338.506 430.375 337.101Q430.375 335.561 430.871 334.262Q431.372 332.958 432.286 331.998Q433.204 331.038 434.447 330.509Q435.695 329.976 437.175 329.976Q438.409 329.976 439.415 330.31Q440.422 330.639 441.146 331.084L440.403 332.815Q439.833 332.425 439.021 332.091Q438.209 331.752 437.231 331.752Q436.233 331.752 435.333 332.151Q434.438 332.55 433.752 333.269Q433.07 333.984 432.68 334.939Q432.29 335.895 432.29 337.003Q432.29 338.117 432.643 339.077Q432.995 340.037 433.654 340.747Q434.317 341.452 435.241 341.846Q436.168 342.241 437.319 342.241Q438.372 342.241 439.183 341.925Q439.995 341.605 440.529 341.197L441.317 342.839ZM445.555 335.997L445.727 338.279L445.639 337.964Q445.945 337.254 446.525 336.744Q447.105 336.233 447.74 335.96Q448.376 335.686 448.839 335.686L448.756 337.453Q447.861 337.393 447.183 337.792Q446.506 338.191 446.121 338.854Q445.736 339.513 445.736 340.274L445.736 343.864L443.969 343.864L443.969 335.997L445.555 335.997ZM454.426 344.054Q453.086 344.054 452.111 343.512Q451.142 342.969 450.613 342.027Q450.084 341.081 450.084 339.875Q450.084 338.706 450.673 337.755Q451.263 336.804 452.255 336.243Q453.248 335.677 454.463 335.677Q456.022 335.677 457.047 336.586Q458.077 337.49 458.448 339.095L451.968 341.373L451.541 340.329L456.848 338.381L456.481 338.641Q456.24 338.01 455.716 337.551Q455.196 337.092 454.333 337.092Q453.61 337.092 453.044 337.439Q452.478 337.783 452.153 338.386Q451.833 338.989 451.833 339.777Q451.833 340.585 452.172 341.211Q452.51 341.832 453.109 342.185Q453.707 342.533 454.463 342.533Q454.987 342.533 455.47 342.343Q455.957 342.152 456.374 341.851L457.191 343.159Q456.592 343.558 455.86 343.808Q455.131 344.054 454.426 344.054ZM463.935 344.054Q462.826 344.054 461.922 343.581Q461.022 343.103 460.493 342.185Q459.964 341.262 459.964 339.93Q459.964 338.608 460.516 337.657Q461.068 336.702 461.987 336.192Q462.91 335.677 464.014 335.677Q465.122 335.677 465.883 336.178Q466.644 336.674 467.043 337.365L466.918 337.662L467.099 335.997L468.736 335.997L468.736 343.864L466.96 343.864L466.96 341.814L467.159 342.268Q467.071 342.459 466.816 342.755Q466.561 343.048 466.138 343.354Q465.721 343.655 465.169 343.855Q464.622 344.054 463.935 344.054ZM464.413 342.593Q465.067 342.593 465.591 342.347Q466.12 342.097 466.472 341.647Q466.825 341.197 466.96 340.575L466.96 339.031Q466.806 338.469 466.431 338.047Q466.055 337.62 465.522 337.379Q464.993 337.138 464.353 337.138Q463.652 337.138 463.058 337.481Q462.465 337.82 462.112 338.432Q461.76 339.04 461.76 339.847Q461.76 340.617 462.121 341.239Q462.483 341.86 463.091 342.227Q463.699 342.593 464.413 342.593ZM472.546 332.541L474.332 332.541L474.332 336.025L476.484 336.025L476.484 337.421L474.332 337.421L474.332 343.864L472.546 343.864L472.546 337.421L471.108 337.421L471.108 336.025L472.546 336.025L472.546 332.541ZM482.261 344.054Q480.921 344.054 479.947 343.512Q478.977 342.969 478.448 342.027Q477.919 341.081 477.919 339.875Q477.919 338.706 478.509 337.755Q479.098 336.804 480.09 336.243Q481.083 335.677 482.298 335.677Q483.857 335.677 484.882 336.586Q485.912 337.49 486.283 339.095L479.803 341.373L479.376 340.329L484.683 338.381L484.316 338.641Q484.075 338.01 483.551 337.551Q483.031 337.092 482.168 337.092Q481.445 337.092 480.879 337.439Q480.313 337.783 479.988 338.386Q479.668 338.989 479.668 339.777Q479.668 340.585 480.007 341.211Q480.345 341.832 480.944 342.185Q481.542 342.533 482.298 342.533Q482.823 342.533 483.305 342.343Q483.792 342.152 484.209 341.851L485.026 343.159Q484.427 343.558 483.695 343.808Q482.966 344.054 482.261 344.054ZM491.696 344.054Q490.592 344.054 489.706 343.535Q488.825 343.01 488.31 342.05Q487.799 341.09 487.799 339.828Q487.799 338.525 488.342 337.597Q488.885 336.665 489.817 336.173Q490.754 335.677 491.914 335.677Q492.846 335.677 493.691 336.076Q494.535 336.475 495.003 337.175L494.924 337.801L494.924 329.15L496.692 329.15L496.692 343.864L494.906 343.864L494.906 341.916L495.105 342.412Q494.544 343.122 493.672 343.59Q492.8 344.054 491.696 344.054ZM492.248 342.542Q492.939 342.542 493.486 342.287Q494.034 342.032 494.396 341.577Q494.762 341.118 494.906 340.51L494.906 339.021Q494.762 338.451 494.377 338.019Q493.997 337.583 493.449 337.337Q492.902 337.092 492.248 337.092Q491.524 337.092 490.921 337.439Q490.318 337.783 489.956 338.39Q489.595 338.998 489.595 339.796Q489.595 340.566 489.956 341.192Q490.318 341.814 490.926 342.18Q491.534 342.542 492.248 342.542ZM509.746 330.129Q511.815 330.129 512.998 330.973Q514.181 331.817 514.181 333.594Q514.181 334.689 513.689 335.491Q513.202 336.294 512.316 336.744Q511.435 337.194 510.229 337.263L509.964 336.294Q511.351 336.331 512.451 336.795Q513.555 337.254 514.204 338.07Q514.858 338.887 514.858 340.009Q514.858 341.034 514.478 341.767Q514.097 342.496 513.448 342.964Q512.803 343.428 511.987 343.646Q511.17 343.864 510.289 343.864L506.202 343.864L506.202 330.129L509.746 330.129ZM510.127 336.141Q511.259 336.141 511.769 335.505Q512.284 334.87 512.284 333.974Q512.284 332.894 511.616 332.402Q510.952 331.906 509.83 331.906L508.044 331.906L508.044 336.141L510.127 336.141ZM510.201 342.152Q510.962 342.152 511.588 341.925Q512.214 341.698 512.585 341.22Q512.956 340.738 512.956 340.028Q512.956 339.23 512.53 338.775Q512.103 338.316 511.439 338.117Q510.781 337.917 510.08 337.917L508.044 337.917L508.044 342.152L510.201 342.152ZM518.172 347.645L523.358 335.997L524.995 335.997L519.92 347.645L518.172 347.645ZM520.12 343.92L516.33 335.997L518.325 335.997L521.498 343.02L520.12 343.92Z"/></svg>