<?xml version="1.0" encoding="utf-8"?>
<svg xmlns="http://www.w3.org/2000/svg" width="506" height="524" viewBox="0 0 506 524">
  <defs>
    <clipPath id="appIconClip">
      <rect x="0" y="0" width="506" height="524" rx="96" ry="96"/>
    </clipPath>
  </defs>

  <g clip-path="url(#appIconClip)">
    <rect x="0" y="0" width="506" height="524" rx="96" ry="96" fill="#EF943A"/>

    <path fill="#FEFBF3" transform="matrix(1.59946 0.00174471 -0.0017433 1.60076 0.617188 -43.2205)" d="M148.04 75.7012C211.947 71.0932 267.502 119.137 272.163 183.043C276.825 246.949 228.83 302.547 164.931 307.263C100.956 311.984 45.2801 263.917 40.6129 199.935C35.9458 135.953 84.0572 80.3147 148.04 75.7012Z"/>
    <path fill="#EF943A" transform="matrix(1.59946 0.00174471 -0.0017433 1.60076 0.617188 -43.2205)" d="M146.098 109.471L166.387 109.595L176.932 133.798L182.551 136.135C190.545 133.121 198.898 129.45 206.812 126.131C211.819 130.911 216.7 135.822 221.449 140.859C218.089 148.973 214.788 157.112 211.546 165.275L214.093 170.865C220.202 173.959 231.59 178.302 238.291 181.205L238.343 201.446C230.396 205.037 222.098 208.519 214.076 211.979C213.208 213.581 212.346 215.977 211.658 217.722L221.687 241.993C217.265 246.712 211.837 251.871 207.206 256.495C199.275 253.653 190.594 249.848 182.529 246.784C180.663 247.519 178.731 248.427 176.892 249.25C173.52 256.6 169.989 265.822 166.742 273.456L146.303 273.437C142.926 265.468 139.48 256.935 135.746 249.172C133.926 248.424 131.715 247.669 129.839 246.977C123.402 249.1 112.512 254.042 105.67 256.722L91.2963 242.252C94.6235 234.263 97.8458 226.057 101.092 218.021L98.5159 212.073C91.6201 208.755 81.6591 204.927 74.3834 201.914L74.3416 181.378C82.3305 178.027 90.5031 174.705 98.3338 171.027L101.072 165.019L90.9835 140.903C95.8807 136.132 100.75 131.331 105.591 126.503C113.217 129.216 122.282 133.111 129.911 136.171L135.712 133.663C139.237 126.967 142.779 116.833 146.098 109.471Z"/>
    <path fill="#FEFBF3" transform="matrix(1.59946 0.00174471 -0.0017433 1.60076 0.617188 -43.2205)" d="M150.253 161.501C161.051 159.353 172.171 163.176 179.365 171.51C186.559 179.845 188.717 191.404 185.015 201.774C181.313 212.143 172.323 219.721 161.477 221.614C144.979 224.494 129.235 213.567 126.161 197.104C123.088 180.641 133.828 164.769 150.253 161.501Z"/>
  </g>
</svg>